#N canvas 38 23 2522 1395 12;
#X obj 10 11 inlet;
#X obj 60 423 outlet;
#X obj 42 228 t b f;
#X obj 41 153 >= 0;
#X obj 40 204 f;
#X obj 11 96 f;
#X obj 40 179 metro \$1;
#X obj 12 37 + 0;
#X obj 12 68 clip 0 \$3;
#X obj 12 125 - \$2;
#X obj 14 336 moses 0;
#X obj 73 255 moses 0;
#X obj 16 362 t b;
#X obj 15 389 f 0;
#X connect 0 0 7 0;
#X connect 2 0 5 0;
#X connect 2 1 11 0;
#X connect 3 0 6 0;
#X connect 4 0 2 0;
#X connect 5 0 9 0;
#X connect 6 0 4 0;
#X connect 7 0 8 0;
#X connect 8 0 5 0;
#X connect 9 0 3 0;
#X connect 9 0 4 1;
#X connect 9 0 10 0;
#X connect 10 0 12 0;
#X connect 10 1 1 0;
#X connect 11 1 5 1;
#X connect 11 1 7 1;
#X connect 12 0 13 0;
#X connect 13 0 1 0;
